<svg xmlns="http://www.w3.org/2000/svg" width="1200" height="500" viewBox="0 0 1200 500" role="img" aria-labelledby="title desc">
<title id="title">This week in code</title>
<desc id="desc">14.3 hours coded this week across 5 active days with a 0 day streak. Includes daily coding activity.</desc>
<rect width="1200" height="500" fill="#ffffff"/>
<g font-family="-apple-system,BlinkMacSystemFont,Segoe UI,Helvetica,Arial,sans-serif" fill="#1f2328">
<text x="48" y="54" font-size="26" font-weight="700">This week in code</text>
<text x="1152" y="54" text-anchor="end" font-size="14" fill="#656d76">Updated Sep 6, 2026 at 1:33 PM EDT</text>
<line x1="48" y1="78" x2="1152" y2="78" stroke="#d0d7de"/>
<text x="48" y="113" font-size="12" font-weight="600" fill="#656d76" letter-spacing="1">HOURS</text>
<text x="48" y="151" font-size="29" font-weight="700">14.3h</text>
<text x="416" y="113" font-size="12" font-weight="600" fill="#656d76" letter-spacing="1">ACTIVE DAYS</text>
<text x="416" y="151" font-size="29" font-weight="700">5/7</text>
<text x="784" y="113" font-size="12" font-weight="600" fill="#656d76" letter-spacing="1">STREAK</text>
<text x="784" y="151" font-size="29" font-weight="700">0 days</text>
<line x1="392" y1="99" x2="392" y2="154" stroke="#d0d7de"/>
<line x1="760" y1="99" x2="760" y2="154" stroke="#d0d7de"/>
<text x="48" y="202" font-size="15" font-weight="600" fill="#656d76">DAILY ACTIVITY</text>
<line x1="48" y1="230" x2="1152" y2="230" stroke="#d8dee4" stroke-width="1"/>
<line x1="48" y1="302" x2="1152" y2="302" stroke="#d8dee4" stroke-width="1"/>
<line x1="48" y1="374" x2="1152" y2="374" stroke="#d8dee4" stroke-width="1"/>
<rect x="112" y="250.0" width="88" height="154.0" rx="4" fill="#0969da"/>
<text x="156.0" y="241.0" text-anchor="middle" font-size="13" font-weight="600">5h 13m</text>
<text x="156.0" y="429" text-anchor="middle" font-size="13" fill="#656d76">Mon</text>
<rect x="260" y="322.4" width="88" height="81.6" rx="4" fill="#0969da"/>
<text x="304.0" y="313.4" text-anchor="middle" font-size="13" font-weight="600">2h 46m</text>
<text x="304.0" y="429" text-anchor="middle" font-size="13" fill="#656d76">Tue</text>
<rect x="408" y="289.9" width="88" height="114.1" rx="4" fill="#0969da"/>
<text x="452.0" y="280.9" text-anchor="middle" font-size="13" font-weight="600">3h 52m</text>
<text x="452.0" y="429" text-anchor="middle" font-size="13" fill="#656d76">Wed</text>
<rect x="556" y="330.7" width="88" height="73.3" rx="4" fill="#0969da"/>
<text x="600.0" y="321.7" text-anchor="middle" font-size="13" font-weight="600">2h 29m</text>
<text x="600.0" y="429" text-anchor="middle" font-size="13" fill="#656d76">Thu</text>
<rect x="704" y="401.0" width="88" height="3.0" rx="4" fill="#0969da"/>
<text x="748.0" y="392.0" text-anchor="middle" font-size="13" font-weight="600">2m</text>
<text x="748.0" y="429" text-anchor="middle" font-size="13" fill="#656d76">Fri</text>
<rect x="852" y="401.0" width="88" height="3.0" rx="4" fill="#d0d7de"/>
<text x="896.0" y="392.0" text-anchor="middle" font-size="13" font-weight="600">—</text>
<text x="896.0" y="429" text-anchor="middle" font-size="13" fill="#656d76">Sat</text>
<rect x="1000" y="401.0" width="88" height="3.0" rx="4" fill="#d0d7de"/>
<text x="1044.0" y="392.0" text-anchor="middle" font-size="13" font-weight="600">—</text>
<text x="1044.0" y="429" text-anchor="middle" font-size="13" fill="#656d76">Sun</text>
<line x1="48" y1="458" x2="1152" y2="458" stroke="#d0d7de"/>
<text x="1152" y="486" text-anchor="end" font-size="13" fill="#656d76">Powered by code-clock</text>
</g>
</svg>
